<?xml version="1.0" standalone="no"?>
<!DOCTYPE svg PUBLIC "-//W3C//DTD SVG 20010904//EN"
 "http://www.w3.org/TR/2001/REC-SVG-20010904/DTD/svg10.dtd">
<svg version="1.0" xmlns="http://www.w3.org/2000/svg"
 width="800.000000pt" height="800.000000pt" viewBox="0 0 800.000000 800.000000"
 preserveAspectRatio="xMidYMid meet">
<metadata>
Created by potrace 1.11, written by Peter Selinger 2001-2013
</metadata>
<g transform="translate(0.000000,800.000000) scale(0.100000,-0.100000)"
fill="#000000" stroke="none">
<path d="M2468 6254 c-5 -4 -8 -1019 -8 -2256 l0 -2248 813 0 c801 0 904 4
1102 36 351 57 780 251 1065 481 98 79 289 277 364 376 313 418 458 849 458
1357 0 375 -68 677 -222 979 -242 477 -583 815 -1055 1046 -205 100 -420 165
-682 206 -132 21 -177 22 -983 26 -465 3 -848 1 -852 -3z m1747 -868 c376 -69
685 -271 888 -581 53 -82 130 -243 162 -340 89 -272 87 -660 -4 -928 -41 -122
-111 -265 -178 -366 -69 -104 -220 -256 -326 -329 -90 -62 -247 -138 -362
-175 -170 -55 -221 -60 -627 -65 l-378 -3 0 1406 0 1407 368 -5 c279 -3 388
-9 457 -21z"/>
</g>
</svg>
