<svg xmlns="http://www.w3.org/2000/svg" width="125" height="37" viewBox="0 0 125 37"><g><g><path fill="#fff" d="M106.721 15.281c.801-.332.848-.872.074-1.246-1.05-.507-2.143-.958-3.261-1.278-2.937-.839-5.95-1.295-8.99-1.575-.5-.046-1.006-.044-1.509-.04-.47.003-.723.273-.727.75-.005.686-.001 1.373-.001 2.06h.043c0 .686-.008 1.373.002 2.06.01.65.284.945.923.918 2.119-.09 4.238-.171 6.353-.319 1.534-.107 3.071-.25 4.587-.501.858-.143 1.694-.491 2.506-.829zM89.77 10.975c-1.83.025-3.666-.007-5.488.138-3.944.315-7.693 1.415-11.259 3.118-.883.422-1.714.952-2.57 1.433l.037.116c.392.018.784.05 1.176.05.353.002.506.158.476.506a1.18 1.18 0 0 0 0 .275c.114.753-.068 1.353-.84 1.658-.032.013-.05.064-.106.139.768-.067 1.49-.14 2.214-.191 3.97-.277 7.939-.547 11.908-.822 1.26-.087 2.52-.179 3.779-.275.559-.042.865-.33.925-.885.163-1.483.318-2.966.468-4.449.046-.458-.248-.818-.72-.811zm35.205 14.09c.065.727.08 1.47-.005 2.193-.25 2.105-1.304 3.242-3.3 3.672-1.937.418-3.885.788-5.828 1.18-.448.091-.506.031-.44-.436.031-.21.055-.424.055-.637 0-1.85-.66-3.451-1.833-4.859-.326-.296-.63-.623-.982-.885-2.188-1.626-4.593-2.04-7.132-1.033-2.604 1.032-4.139 3.005-4.551 5.785-.118.794-.056 1.614-.098 2.421-.03.57-.27.822-.831.92a3.729 3.729 0 0 1-.592.046c-6.048.07-12.097.135-18.144.207-6.616.08-13.232.166-19.848.249-.78.01-.887-.068-1.007-.851a18.371 18.371 0 0 1-.17-1.593c-.162-2.494-1.155-4.545-3.14-6.11-2.352-1.854-5.373-2.217-8-.79-2.764 1.501-4.04 3.962-3.89 7.126.03.626.082 1.25.126 1.875.022.312-.065.502-.434.456-1.135-.142-2.282-.219-3.404-.43-.608-.113-1.188-.42-1.754-.694-.377-.183-.331-.508-.17-.863.11-.244.162-.538.156-.807-.026-1.248-.123-2.496-.11-3.743.006-.657.187-1.343.827-1.691.314-.171.382-.38.431-.67.12-.706.25-1.41.378-2.116.127-.705.489-1.244 1.149-1.55 1.048-.487 2.071-1.054 3.16-1.424 3.206-1.088 6.538-1.619 9.893-1.954 2.931-.293 5.876-.45 8.814-.682.28-.022.583-.1.818-.246 3.25-2.016 6.644-3.729 10.258-5.004 3.934-1.387 7.973-2.19 12.144-2.21 5.157-.026 10.274.39 15.322 1.537 3.66.832 7.185 2.016 10.547 3.687.515.256 1.032.593 1.582.683 1.233.201 2.49.249 3.733.4.874.107 1.75.237 2.604.443.458.111.84.434.856.996.076.141.194.276.22.425.204 1.202.471 2.4.559 3.61.07.984.226 1.817 1.23 2.247a.749.749 0 0 1 .326.245c.183.28.448.571.475.876zm-16.745 9.304c1.783-.025 3.292-1.568 3.265-3.339a3.328 3.328 0 0 0-3.374-3.302c-1.821.024-3.32 1.546-3.296 3.346.024 1.83 1.565 3.32 3.405 3.295zm5.864-3.254c-.009 3.24-2.707 5.91-5.948 5.885a5.959 5.959 0 0 1-5.926-5.966 5.92 5.92 0 0 1 5.941-5.931c3.336 0 5.943 2.642 5.933 6.012zm-61.546-3.39c-1.752-.064-3.267 1.404-3.341 3.24-.072 1.769 1.403 3.348 3.187 3.401 1.639.05 3.305-1.05 3.461-3.13.145-1.922-1.36-3.438-3.307-3.51zm5.933 3.289c.008 3.275-2.654 5.968-5.913 5.983a5.938 5.938 0 0 1-5.975-5.948c-.001-3.306 2.62-5.94 5.917-5.944 3.293-.005 5.964 2.638 5.971 5.909zM33.251 23.63c.133-1.76-1.246-3.15-3.03-3.216-1.606-.06-2.994 1.286-3.063 2.968-.065 1.621 1.286 3.068 2.921 3.117 1.502.046 3.028-.962 3.172-2.869zm2.407-.203c.007 3.001-2.433 5.47-5.42 5.484a5.442 5.442 0 0 1-5.475-5.452 5.407 5.407 0 0 1 5.422-5.446c3.018-.005 5.466 2.417 5.473 5.414zm10.97-14.066l.034.106c.359.017.718.046 1.077.047.324 0 .464.144.437.463-.007.083-.012.17 0 .252.104.69-.062 1.24-.77 1.52-.03.011-.046.058-.097.126.704-.06 1.366-.128 2.03-.174 3.636-.254 7.273-.502 10.91-.754 1.155-.08 2.31-.164 3.464-.251.512-.04.793-.304.848-.812.149-1.358.291-2.717.429-4.077.042-.419-.228-.75-.66-.743-1.677.023-3.36-.006-5.03.127-3.614.289-7.048 1.296-10.316 2.857-.81.386-1.572.873-2.355 1.313zm-4.973 8.21c-.276.135-.553.27-.83.4-1.772.821-2.944 2.362-3.3 4.336l-.206 1.135c-.018.019-.033.04-.05.06-.211-2.14-1.118-3.913-2.85-5.28-2.156-1.699-4.924-2.032-7.331-.724-2.534 1.376-3.702 3.631-3.565 6.53.027.574.075 1.146.115 1.719.02.286-.06.46-.397.418-1.04-.13-2.092-.2-3.12-.394-.557-.104-1.089-.385-1.608-.636-.345-.168-.303-.466-.155-.791.101-.224.148-.493.143-.74-.024-1.144-.113-2.287-.102-3.43.006-.602.172-1.23.759-1.55.287-.156.35-.348.395-.613.11-.647.23-1.293.346-1.94.117-.646.448-1.139 1.052-1.42.962-.446 1.9-.966 2.897-1.305 2.938-.997 5.991-1.483 9.065-1.79 2.687-.27 5.386-.412 8.078-.625.255-.02.534-.093.749-.226 2.979-1.847 6.089-3.417 9.4-4.585 3.605-1.272 7.307-2.008 11.13-2.026 4.725-.023 9.414.358 14.04 1.41 1.505.342 2.985.753 4.44 1.237-.753.139-1.507.306-2.262.488a16.182 16.182 0 0 0-1.544-.532c-2.692-.769-5.453-1.187-8.238-1.443-.458-.042-.922-.04-1.383-.037-.43.002-.663.25-.666.687-.005.63-.001 1.258-.001 1.888h.04c0 .629-.008 1.259.001 1.888.009.595.26.866.846.84.632-.026 1.263-.052 1.895-.08a60.3 60.3 0 0 0-5.876 3.161c-.894.069-1.788.131-2.683.194-1.885.131-3.834.267-5.773.461-4.355.436-7.667 1.095-10.74 2.138-1.007.342-1.912.786-2.71 1.177zm-31.073-2.939c-1.42-.053-2.646 1.137-2.707 2.624-.058 1.432 1.137 2.711 2.582 2.755 1.327.04 2.677-.85 2.804-2.537.117-1.556-1.102-2.784-2.68-2.842zm-.031-2.123c2.667-.004 4.83 2.137 4.836 4.786.001.217-.018.43-.045.638-.173.411-.297.852-.368 1.32-.747 1.688-2.429 2.88-4.376 2.889a4.81 4.81 0 0 1-4.84-4.818 4.78 4.78 0 0 1 4.793-4.815zm14.534-7.646l.03.093c.317.015.634.04.951.042.286 0 .41.127.386.41a.947.947 0 0 0 0 .221c.093.61-.055 1.097-.68 1.344-.026.01-.04.051-.086.112.622-.054 1.207-.114 1.793-.155 3.215-.224 6.43-.443 9.645-.666 1.02-.07 2.04-.144 3.06-.222.454-.034.701-.268.75-.717.132-1.2.258-2.402.38-3.603.037-.37-.202-.663-.584-.657-1.482.02-2.97-.006-4.445.112-3.195.255-6.23 1.145-9.119 2.525-.715.342-1.388.771-2.081 1.16zm-4.846 6.246c-.253.124-.506.249-.76.367-1.624.753-2.699 2.164-3.025 3.973l-.03.163c-.404-1.128-1.1-2.105-2.132-2.917-1.904-1.502-4.351-1.796-6.479-.64-2.239 1.216-3.272 3.21-3.15 5.772.023.507.066 1.012.1 1.519.018.252-.052.406-.35.369-.92-.115-1.849-.177-2.758-.348-.492-.092-.962-.34-1.42-.563-.306-.148-.268-.411-.138-.699.09-.197.131-.435.127-.653-.022-1.011-.1-2.022-.09-3.032.005-.532.151-1.088.67-1.37.254-.138.31-.307.35-.542.097-.572.202-1.143.305-1.714.103-.571.396-1.008.93-1.255.85-.395 1.679-.854 2.561-1.154 2.596-.881 5.295-1.311 8.012-1.583 2.375-.237 4.76-.364 7.14-.552.225-.018.472-.081.662-.2C23.397 4.42 26.145 3.033 29.073 2 32.258.875 35.53.225 38.909.209c4.177-.021 8.321.315 12.41 1.245.568.13 1.131.272 1.691.423-.554.15-1.11.314-1.664.489-2.21-.587-4.47-.923-6.747-1.132a12.394 12.394 0 0 0-1.223-.033c-.38.002-.586.22-.59.607-.003.556 0 1.112 0 1.669h.035c0 .556-.007 1.112.002 1.668.005.369.119.594.362.69a58.754 58.754 0 0 0-2.87 1.638c-.82.063-1.64.12-2.459.177-1.727.12-3.513.245-5.291.423-3.99.399-7.025 1.003-9.841 1.96-.924.313-1.753.719-2.485 1.077z"/></g></g></svg>