<svg xmlns="http://www.w3.org/2000/svg" width="23" height="23" viewBox="0 0 23 23"><g><g opacity="-1"><g><path fill="#002250" d="M.773 1.74l11.33 10.065L.773 21.868C.753 21.731.7 21.552.7 21.374c-.004-6.36-.004-12.72 0-19.08 0-.175.045-.35.074-.554z"/></g><g><path fill="#002250" d="M13.24 12.948l3.417 2.87c-.756.381-1.458.737-2.16 1.092-3.776 1.907-7.549 3.819-11.333 5.712-.358.18-.788.244-1.24.378L13.24 12.948z"/></g><g><path fill="#002250" d="M16.616 7.854l-3.394 2.913L1.958.785V.709c.36.087.76.112 1.075.27 4.488 2.249 8.965 4.515 13.444 6.778.044.022.08.056.14.097z"/></g><g><path fill="#002250" d="M18.048 15.117l-3.687-3.278 3.657-3.291 2.236 1.126c.598.302 1.203.593 1.79.911.26.142.515.314.716.517.44.445.428 1.018-.003 1.473a1.74 1.74 0 0 1-.446.362c-1.431.74-2.87 1.47-4.263 2.18z"/></g></g></g></svg>