<svg enable-background="new 0 0 50.6 53.7" viewBox="0 0 50.6 53.7" xmlns="http://www.w3.org/2000/svg"><path d="m0 53.7v-.7c0-.6.1-1.2.1-1.8 0-2.3.2-4.7.8-7 .3-1.8 1.4-3.3 3-4.3 1.1-.6 2.2-1.2 3.3-1.6 2.8-1 5.7-1.8 8.6-2.7.3-.1.7-.2 1-.3 0 .1.1.2.1.4-.4 2.7.3 5.4 1.8 7.7 1.5 2.5 3.5 4.8 5.9 6.5.7.5.8.5 1.4 0 3.3-2.4 5.8-5.7 7.3-9.5.5-1.5.6-3 .4-4.5 0-.2 0-.3 0-.5.6.2 1.2.4 1.9.6 2.9.9 5.7 1.8 8.6 2.8 1.1.4 2.1 1 3 1.6 1.6 1 2.2 2.7 2.7 4.4.5 2.2.7 4.4.7 6.6 0 .6.1 1.2.1 1.8v.7zm25-5.3c-1.1-.7-2.1-1.7-2.9-2.8-.1-.2-.1-.4-.1-.6.7-1.7 1.3-3.3 2-5 .1-.3.1-.6-.2-.8-.7-.7-1.4-1.4-2.2-2.3.7-.6 1.2-1.1 1.7-1.5.1-.1.3-.1.4-.1h2.8c.2 0 .4.1.6.2.4.4.8.8 1.2 1.2.1.2.1.4 0 .5-.6.7-1.2 1.4-1.9 2.1-.2.2-.3.4-.1.7.7 1.7 1.4 3.4 2 5 .1.2.1.5-.1.7-.9.9-1.9 1.9-2.9 2.8-.1.1-.2.1-.3.1.2-.1.1-.1 0-.2zm-6-17.5c-1.9-1.9-3.5-4.2-4.6-6.7-.3-.6-.7-1.2-1.1-1.7-1-1.3-1.5-3-1.4-4.7 0-.9.7-1.6 1.6-1.8-.1-1-.2-2-.3-3-.3-2.3 0-4.5.8-6.7 1.2-2.7 3.6-4.7 6.4-5.6.9-.3 1.9-.5 2.8-.7.2 0 .3-.1.5-.1h3c.7.1 1.3.2 2 .4 2.7.5 5.2 2.1 6.9 4.3 1.2 1.6 1.8 3.6 1.8 5.6.1 1.9 0 3.7-.3 5.6 0 .1.1.4.2.4.7.1 1.3.7 1.3 1.5.2 1.6-.2 3.3-1.2 4.7-.5.8-1 1.6-1.5 2.4-1.1 2.3-2.6 4.4-4.4 6.2-1.7 1.6-3.9 2.6-6.3 2.6-2.3-.1-4.5-1-6.2-2.7zm-5.3-13.4c-.1.2-.1.3-.1.5-.1 1.2.2 2.5 1 3.5.4.6.8 1.2 1.2 1.9.8 1.5 1.5 3.1 2.4 4.5 1.5 2.7 4.4 4.2 7.4 4 2.1 0 4.2-.9 5.6-2.5 1.1-1.2 1.9-2.6 2.7-4 .6-1.5 1.4-2.8 2.3-4.1.7-.9 1-2.1.8-3.2-.1-.5-.3-1-.8-1-.3 0-.7.4-.9.7-.3.4-.5.8-.7 1.2.3-1.8.6-3.6.7-5.4-.5 0-.8-.1-1.2-.1-2.5-.1-5-.5-7.4-1.3-2.4-.9-4.5-2.2-6.3-4-.2-.3-.6-.3-.9-.2-1.5.5-2.7 1.4-3.5 2.7-.6.8-.9 1.8-.8 2.8.1.7.1 1.4.2 2.1.2 1.1.4 2.2.5 3.3-.3-.6-.6-1.1-.9-1.5-.1-.2-.4-.4-.7-.4-.2-.1-.4.1-.6.5z" fill="#fff"/></svg>