<svg enable-background="new 0 0 71.3 55" viewBox="0 0 71.3 55" xmlns="http://www.w3.org/2000/svg"><path d="m71.3 12.5c0-.1 0-.1 0-.2s0-.1 0-.2v-.1c0-.1 0-.1-.1-.2s0-.1-.1-.1c0-.1-.1-.1-.1-.2s-.1-.1-.1-.1-.1-.1-.1-.1-.1-.1-.1-.1-.1-.1-.1-.1-.1-.1-.1-.1-.1 0-.1-.1l-24-10.5c-.5-.2-1.1-.2-1.6 0l-24 10.5s-.1 0-.1.1c-.1 0-.1.1-.2.1s-.1.1-.1.1-.1.1-.1.1-.1.1-.1.1-.1.1-.1.1c0 .1-.1.1-.1.2s0 .1-.1.1c0 .1 0 .1-.1.2v.1.2.2 30c0 .8.5 1.5 1.2 1.8l24 10.5c.1.1.2.1.4.1h.4s.3 0 .4 0c.1 0 .3-.1.4-.1l24-10.5c.7-.3 1.2-1 1.2-1.8zm-26-8.3 19 8.3-7.1 3.1-18.9-8.3zm-2 45.7-20-8.8v-25.5l20 8.8zm2-29.1-19-8.3 7-3.1 18.9 8.4zm22 20.4-20 8.8v-25.7l8-3.5v6.7c0 1.1.9 2 2 2s2-.9 2-2v-8.4l8-3.5zm-52.5-6.5-12-5.5c-1-.5-2.2 0-2.7 1s0 2.2 1 2.7l12 5.5c.3.1.6.2.8.2.8 0 1.5-.4 1.8-1.2.6-1.1.1-2.2-.9-2.7zm0-10.5-9.8-4.6c-1-.5-2.2 0-2.7 1s0 2.2 1 2.7l9.9 4.6c.3.1.6.2.8.2.8 0 1.5-.4 1.8-1.2.5-1.1 0-2.3-1-2.7zm0-10.5-7.9-3.7c-1-.5-2.2 0-2.7 1s0 2.2 1 2.7l7.9 3.7c.3.1.6.2.8.2.8 0 1.5-.4 1.8-1.2.6-1.1.1-2.3-.9-2.7z" fill="#0770d7"/></svg>