<svg enable-background="new 0 0 184.6 51.3" viewBox="0 0 184.6 51.3" xmlns="http://www.w3.org/2000/svg"><path d="m149.8 40.5h-1.7v7.8h4.3l.1-1.6h-2.8v-6.2zm3.6 7.8h1.7v-5.8h-1.7zm.9-8.4c-.5 0-.9.4-.9.9s.4.9.9.9.9-.4.9-.9-.4-.9-.9-.9zm27.4 2.5c-.1 0-.1 0-.2 0-1.7 0-3 1.4-3 3s1.4 3 3 3c1.7 0 3-1.4 3-3 .1-1.6-1.2-3-2.8-3zm1.2 3.2c-.1.7-.6 1.3-1.3 1.3-.8-.1-1.4-.9-1.3-1.7.1-.7.6-1.2 1.3-1.3.8.1 1.4.8 1.3 1.7zm-13.9-2.2c-.4-.6-1.1-1-1.9-1-1.7.3-2.8 1.9-2.5 3.5.2 1.3 1.2 2.3 2.5 2.5.8 0 1.5-.4 1.9-1l.1.9h1.5v-5.8h-1.5zm-.1 2.2c-.1.7-.6 1.2-1.3 1.3-.8-.1-1.5-.8-1.4-1.7.1-.7.6-1.3 1.4-1.4.9.2 1.5 1 1.3 1.8zm7.1-2.2c-.4-.6-1.1-1-1.8-1-1.5.1-2.6 1.4-2.6 2.9-.1 1.5 1 2.8 2.5 2.9.7 0 1.4-.3 1.8-.9v.6c0 .9-.8 1.4-1.7 1.4-.7-.1-1.4-.3-2-.7 0 .1-.1 1.5-.1 1.5.7.4 1.4.7 2.2.7 1.6.2 3.1-1 3.2-2.6 0-.2 0-.3 0-.5v-5.1h-1.4zm-1.4 3.3c-.8 0-1.4-.7-1.4-1.5 0-.7.6-1.3 1.4-1.4.8.1 1.4.8 1.3 1.6-.1.7-.6 1.2-1.3 1.3zm-11.3.3c-.6 0-1.1-.3-1.1-1v-2.1h1.5l.1-1.4h-1.7v-1.5h-1.6l.1-1.4c-.4-.1-.9-.2-1.4-.2-1.2-.1-2.3.8-2.4 2v.2.9h-.9l-.1 1.4h1v4.4h1.7v-4.4h1.9v2.2c-.1 1.2.8 2.2 2 2.3h.4c.3 0 .5 0 .8-.1 0-.1.1-1.4.1-1.4 0 .1-.2.1-.4.1zm-2.7-4.5h-2v-.7c0-.5.4-.9.9-.9h.1c.3 0 .7.1 1 .1zm-144.7-40.5c-1.9-.8-4-1.2-6-1.1h-9.9v29.9h9.9c2.1 0 4.1-.4 6-1.2 1.8-.7 3.5-1.8 4.9-3.2s2.5-3 3.3-4.8c1.6-3.7 1.6-8 0-11.7-1.6-3.6-4.6-6.4-8.2-7.9zm.7 20.4c-.8.9-1.8 1.5-2.9 2-1.2.5-2.5.8-3.8.8h-3.8v-18.8h3.8c1.3 0 2.6.2 3.8.7 1.1.5 2.1 1.2 2.9 2 .8.9 1.4 1.9 1.9 3 .5 1.2.7 2.4.7 3.7-.1 2.4-1 4.8-2.6 6.6zm53.4-12.3c-1.3-.6-2.8-.9-4.3-.9-1.1 0-2.1.2-3.1.5-.9.3-1.6.8-2.3 1.4v-11.1h-5.8v30.8h5.8v-1.6c.7.6 1.5 1.1 2.3 1.5 1 .4 2 .6 3.1.5 1.5 0 2.9-.3 4.3-.9 1.3-.6 2.4-1.4 3.3-2.4 3.9-4.4 3.9-11 0-15.4-.9-1-2-1.8-3.3-2.4zm-.2 12.3c-.2.7-.6 1.3-1.1 1.8s-1 1-1.7 1.3-1.4.5-2.2.5c-1 0-1.9-.2-2.7-.7-.7-.4-1.3-1-1.8-1.6v-6.9c.5-.7 1.1-1.2 1.8-1.6.8-.5 1.8-.7 2.7-.6 1.5 0 2.9.6 3.9 1.7.4.5.8 1.2 1.1 1.8.3.7.4 1.5.4 2.2s-.1 1.4-.4 2.1zm21.3-13c-1.1 0-2.1.3-3 .8-.8.5-1.5 1.2-1.9 2v-2.5h-5.8v21.1h5.8v-13.4c.5-.8 1.2-1.5 2.1-1.8.8-.4 1.7-.5 2.6-.5.4 0 .7 0 1.1.1.2 0 .5.1.7.2l.9-5.4c-.3-.1-.6-.2-1-.3-.5-.2-1-.3-1.5-.3zm38.4 13.8-5.6-13.5h-6.4l9.3 21.1h5.3l9.4-21.1h-6.4zm31.7-10.8c-1-1-2.2-1.8-3.5-2.4-2.8-1.1-5.8-1.1-8.6 0-1.3.6-2.5 1.4-3.5 2.4s-1.8 2.2-2.4 3.5c-.6 1.4-.9 2.8-.9 4.3s.3 2.9.9 4.3c.5 1.3 1.3 2.5 2.4 3.5 1 1 2.2 1.8 3.5 2.4 1.4.6 2.8.8 4.3.8s2.9-.3 4.3-.8c1.3-.5 2.5-1.3 3.5-2.4 1-1 1.8-2.2 2.4-3.5.6-1.4.9-2.8.8-4.3 0-1.5-.3-3-.8-4.3-.6-1.3-1.4-2.5-2.4-3.5zm-3 10.1c-.2.7-.6 1.3-1.1 1.8s-1 .9-1.6 1.2c-.7.3-1.4.4-2.1.4-.7 0-1.4-.1-2.1-.4-.6-.3-1.2-.7-1.6-1.2-.5-.5-.9-1.1-1.1-1.8-.3-.7-.4-1.5-.4-2.2 0-.8.1-1.6.4-2.3.2-.7.6-1.3 1.1-1.8s1-.9 1.6-1.1c1.3-.6 2.9-.6 4.2 0 .6.3 1.2.7 1.6 1.1.5.5.8 1.1 1.1 1.8s.4 1.5.4 2.3c0 .7-.1 1.4-.4 2.2zm26.4-12.8h-17.2v5.2h9.7l-9.9 11.3v4.5h17.3v-5.2h-9.9l9.9-11.3v-4.5z" fill="#0770d7"/><path d="m116 15.9c-.6-1.3-1.4-2.5-2.4-3.5s-2.2-1.8-3.5-2.4c-2.8-1.1-5.8-1.1-8.6 0-1.3.6-2.5 1.4-3.5 2.4s-1.8 2.2-2.4 3.5c-.6 1.4-.9 2.8-.9 4.3s.3 2.9.9 4.3c.5 1.3 1.3 2.5 2.4 3.5.8.8 1.8 1.5 2.8 2-3.3 8.1-12.1 16.6-27.8 16.7h-.2c-15.9 0-24.8-8.6-28.1-16.8.9-.5 1.7-1.1 2.5-1.8 1-1 1.8-2.2 2.4-3.5.6-1.4.9-2.8.8-4.3 0-1.5-.3-3-.8-4.3-.6-1.3-1.4-2.5-2.4-3.5s-2.2-1.8-3.5-2.4c-2.8-1.1-5.8-1.1-8.6 0-1.3.6-2.5 1.4-3.5 2.4s-1.8 2.2-2.4 3.5c-.6 1.4-.9 2.8-.9 4.3s.3 2.9.9 4.3c.5 1.3 1.3 2.5 2.4 3.5 1 1 2.2 1.8 3.5 2.4 1.4.6 2.8.8 4.3.8h.9c2.3 6.1 6.6 11.3 12.3 14.7 6.1 3.6 13.2 5.5 20.3 5.5h.2c7.1 0 14.1-1.9 20.2-5.6 5.6-3.4 9.8-8.5 12-14.6h.6c1.5 0 2.9-.3 4.3-.8 1.3-.5 2.5-1.3 3.5-2.4 1-1 1.8-2.2 2.4-3.5.6-1.4.9-2.8.8-4.3-.1-1.6-.4-3-.9-4.4zm-78.8 9.5c-.6-.3-1.2-.7-1.6-1.2-.5-.5-.9-1.1-1.1-1.8-.3-.6-.5-1.4-.5-2.2s.1-1.6.4-2.3c.2-.7.6-1.3 1.1-1.8s1-.9 1.6-1.1c1.3-.6 2.9-.6 4.2 0 .6.3 1.2.7 1.6 1.1.5.5.8 1.1 1.1 1.8s.4 1.5.4 2.3-.1 1.5-.4 2.2c-.2.7-.6 1.3-1.1 1.8s-1 .9-1.6 1.2c-.7.3-1.4.4-2.1.4-.6 0-1.3-.1-2-.4zm73.4-2.9c-.2.7-.6 1.3-1.1 1.8s-1 .9-1.6 1.2c-.7.3-1.4.4-2.1.4-.7 0-1.4-.1-2.1-.4-.6-.3-1.2-.7-1.6-1.2-.5-.5-.9-1.1-1.1-1.8-.3-.7-.4-1.5-.4-2.2 0-.8.1-1.6.4-2.3.2-.7.6-1.3 1.1-1.8s1-.9 1.6-1.1c1.3-.6 2.9-.6 4.2 0 .6.3 1.2.7 1.6 1.1.5.5.8 1.1 1.1 1.8s.4 1.5.4 2.3c0 .7-.2 1.4-.4 2.2z" fill="#002250"/></svg>